<svg viewBox="0 0 64 64" xml:space="preserve" xmlns="http://www.w3.org/2000/svg" enable-background="new 0 0 64 64"><path d="M58.059 39.74 50 37.262v-2.133A9.965 9.965 0 0 0 53 28h1c2.757 0 5-2.243 5-5 0-1.627-.793-3.061-2-3.974V15c0-7.72-6.28-14-14-14S29 7.28 29 15v4.026c-1.207.914-2 2.348-2 3.974s.793 3.061 2 3.974V29c0 1.654 1.346 3 3 3h1.841A10.037 10.037 0 0 0 36 35.129v2.133l-8.059 2.479A6.965 6.965 0 0 0 23 46.432v1.943a12.02 12.02 0 0 0-3-3.114V18.739A11.96 11.96 0 0 0 25 9c0-2.782-.979-5.495-2.757-7.639l-.3-.361H16v9h-6V1H4.057l-.3.361A11.993 11.993 0 0 0 1 9a11.96 11.96 0 0 0 5 9.739V45.26A11.963 11.963 0 0 0 1 55c0 2.782.979 5.495 2.757 7.639l.3.361H10v-9h6v9h5.943l.3-.361c.274-.33.522-.677.757-1.033V63h40V46.432a6.967 6.967 0 0 0-4.941-6.692zm-6.521.087-2.97 6.683-3.999-2.665 4.712-4.712 2.257.694zM41.858 50h2.283l1.693 11h-5.669l1.693-11zm2.607-2h-2.929l-.841-1.261L43 45.202l2.305 1.537-.84 1.261zM54 26h-1v-6h1c1.654 0 3 1.346 3 3s-1.346 3-3 3zM31 15c0-6.617 5.383-12 12-12s12 5.383 12 12v3.101A4.995 4.995 0 0 0 54 18h-2a10.997 10.997 0 0 1-7.828-3.242L43 13.586l-1.172 1.172A10.997 10.997 0 0 1 34 18h-2c-.342 0-.677.035-1 .101V15zm1 5h1v6h-1c-1.654 0-3-1.346-3-3s1.346-3 3-3zm0 10a1 1 0 0 1-1-1v-1.101c.323.066.658.101 1 .101h1c0 .685.07 1.354.202 2H32zm6.184 2A2.996 2.996 0 0 0 41 34h4c1.654 0 3-1.346 3-3s-1.346-3-3-3h-4a2.996 2.996 0 0 0-2.816 2h-2.921A7.953 7.953 0 0 1 35 28v-8.037a12.966 12.966 0 0 0 8-3.555 12.966 12.966 0 0 0 8 3.555V28c0 4.411-3.589 8-8 8-2.953 0-5.532-1.613-6.918-4h2.102zM40 31a1 1 0 0 1 1-1h4a1 1 0 0 1 0 2h-4a1 1 0 0 1-1-1zm3 7a9.928 9.928 0 0 0 5-1.353v.939l-5 5-5-5v-.939A9.928 9.928 0 0 0 43 38zm-6.281 1.133 4.712 4.712-3.999 2.665-2.97-6.683 2.257-.694zM20.99 61H18v-7c0-1.103-.897-2-2-2h-6c-1.103 0-2 .897-2 2v7H5.01A9.99 9.99 0 0 1 3 55a9.97 9.97 0 0 1 4.547-8.375L8 46.329V17.671l-.453-.296A9.97 9.97 0 0 1 3 9a9.99 9.99 0 0 1 2.01-6H8v7c0 1.103.897 2 2 2h6c1.103 0 2-.897 2-2V3h2.99A9.99 9.99 0 0 1 23 9a9.97 9.97 0 0 1-4.547 8.375l-.453.296v28.658l.453.296A9.97 9.97 0 0 1 23 55a9.99 9.99 0 0 1-2.01 6zM25 46.432a4.975 4.975 0 0 1 3.529-4.779l4.007-1.233 4.032 9.071 2.462-1.642.922 1.383L38.142 61H33V49h-2v12h-6V46.432zM61 61h-6V49h-2v12h-5.142l-1.81-11.769.922-1.383 2.462 1.642 4.032-9.071 4.007 1.233A4.975 4.975 0 0 1 61 46.431V61z" fill="#ffffff" class="fill-000000"></path><circle cx="38" cy="22" r="1" fill="#ffffff" class="fill-000000"></circle><circle cx="48" cy="22" r="1" fill="#ffffff" class="fill-000000"></circle><path d="M14 29h2v2h-2zM13 18c-1.654 0-3 1.346-3 3v6h2v-6a1 1 0 0 1 2 0v6h2v-6c0-1.654-1.346-3-3-3zM10 29h2v2h-2zM10 33h2v2h-2zM14 43a1 1 0 0 1-2 0v-6h-2v6c0 1.654 1.346 3 3 3s3-1.346 3-3v-6h-2v6zM14 33h2v2h-2z" fill="#ffffff" class="fill-000000"></path></svg>